<svg width="41" height="30" viewBox="0 0 41 30" fill="none" xmlns="http://www.w3.org/2000/svg">
<path id="Arrow 1" d="M2 13C0.89543 13 0 13.8954 0 15C0 16.1046 0.89543 17 2 17V13ZM39.4281 16.4142C40.2091 15.6332 40.2091 14.3668 39.4281 13.5858L26.7002 0.857864C25.9191 0.0768156 24.6528 0.0768156 23.8717 0.857864C23.0907 1.63891 23.0907 2.90524 23.8717 3.68629L35.1855 15L23.8717 26.3137C23.0907 27.0948 23.0907 28.3611 23.8717 29.1421C24.6528 29.9232 25.9191 29.9232 26.7002 29.1421L39.4281 16.4142ZM2 17H38.0139V13H2V17Z" fill="black"/>
</svg>
