<?xml version="1.0" standalone="no"?>
<!DOCTYPE svg PUBLIC "-//W3C//DTD SVG 20010904//EN"
 "http://www.w3.org/TR/2001/REC-SVG-20010904/DTD/svg10.dtd">
<svg version="1.0" xmlns="http://www.w3.org/2000/svg"
 width="175.000000pt" height="120.000000pt" viewBox="0 0 175.000000 120.000000"
 preserveAspectRatio="xMidYMid meet">

<g transform="translate(0.000000,120.000000) scale(0.100000,-0.100000)"
fill="#000000" stroke="none">
<path d="M0 600 l0 -600 875 0 875 0 0 600 0 600 -875 0 -875 0 0 -600z m170
265 l0 -325 35 0 35 0 0 -265 0 -265 -115 0 -115 0 0 590 0 590 80 0 80 0 0
-325z m250 0 l0 -325 40 0 40 0 0 -265 0 -265 -125 0 -125 0 0 265 0 265 40 0
40 0 0 325 0 325 45 0 45 0 0 -325z m320 -265 l0 -590 -115 0 -115 0 0 265 0
265 35 0 35 0 0 325 0 325 80 0 80 0 0 -590z m160 265 l0 -325 40 0 40 0 0
-265 0 -265 -115 0 -115 0 0 590 0 590 75 0 75 0 0 -325z m260 0 l0 -325 35 0
35 0 0 -265 0 -265 -120 0 -120 0 0 265 0 265 35 0 35 0 0 325 0 325 50 0 50
0 0 -325z m250 0 l0 -325 35 0 35 0 0 -265 0 -265 -120 0 -120 0 0 265 0 265
40 0 40 0 0 325 0 325 45 0 45 0 0 -325z m330 -265 l0 -590 -125 0 -125 0 0
265 0 265 40 0 40 0 0 325 0 325 85 0 85 0 0 -590z"/>
</g>
</svg>
